<?xml version="1.0" encoding="UTF-8"?>
<!DOCTYPE svg PUBLIC "-//W3C//DTD SVG 1.1//EN" "http://www.w3.org/Graphics/SVG/1.1/DTD/svg11.dtd">
<!-- Creator: CorelDRAW 2021.5 -->
<svg xmlns="http://www.w3.org/2000/svg" xml:space="preserve" width="41.056mm" height="22.3836mm" version="1.1" style="shape-rendering:geometricPrecision; text-rendering:geometricPrecision; image-rendering:optimizeQuality; fill-rule:evenodd; clip-rule:evenodd"
viewBox="0 0 317.01 172.83"
 xmlns:xlink="http://www.w3.org/1999/xlink"
 xmlns:xodm="http://www.corel.com/coreldraw/odm/2003">
 <defs>
  <style type="text/css">
   <![CDATA[
    .fil0 {fill:#FEFEFE}
   ]]>
  </style>
 </defs>
 <g id="Слой_x0020_1">
  <metadata id="CorelCorpID_0Corel-Layer"/>
  <path class="fil0" d="M125.32 42.2c1.5,-3.54 4.02,-9 5.85,-12.22 2.45,-4.29 5.25,-7.78 7.71,-11.33 -7.5,-8.21 -28.06,-16.2 -43.01,-17.82 -50.68,-5.5 -98.36,34.78 -95.77,89.49 1.77,37.55 24.34,61.95 49.86,74.36 23.31,11.34 51.9,10.85 75.74,-1.42 3.91,-2.01 6.46,-3.56 9.71,-6.01l8.61 -7.1c32.94,-28.59 23.51,-67.24 34.56,-89.33 6.61,-13.21 17.01,-24.41 32.17,-29.71 18.14,-6.33 34.76,-4.14 50.11,4.69 46.19,26.58 33.75,99.96 -20.77,108.35 -18.89,2.91 -37.59,-4.42 -47.48,-13.36 -8.5,19.01 -4.27,9.43 -13.06,24.7 13.07,8.68 25.17,15.35 45.05,16.72 19.4,1.33 35.95,-3.86 50.11,-11.74 55.31,-30.81 60.63,-122.41 -9.55,-153.47 -14.99,-6.63 -34.52,-8.98 -52.26,-5.18 -16,3.43 -32.36,12.33 -40.52,21.41 -1.54,1.71 -1.88,1.88 -3.6,3.4 -2.06,1.82 -2.04,2.12 -3.63,4.22 -7.65,10.06 -12.49,17.33 -16.37,30.74 -6.6,22.84 -0.82,65.82 -43.39,80.46 -52.86,18.18 -100.3,-42.39 -66.44,-90 17.12,-24.08 51.77,-31.41 76.98,-16.13 3.28,1.99 6.81,5.06 9.38,6.29z"/>
 </g>
</svg>
